<?xml version="1.0" standalone="no"?>
<!DOCTYPE svg PUBLIC "-//W3C//DTD SVG 20010904//EN"
 "http://www.w3.org/TR/2001/REC-SVG-20010904/DTD/svg10.dtd">
<svg version="1.0" xmlns="http://www.w3.org/2000/svg"
 width="240.000000pt" height="240.000000pt" viewBox="0 0 240.000000 240.000000"
 preserveAspectRatio="xMidYMid meet">
<metadata>
Created by potrace 1.11, written by Peter Selinger 2001-2013
</metadata>
<g transform="translate(0.000000,240.000000) scale(0.100000,-0.100000)"
fill="#000000" stroke="none">
<path d="M1120 2365 l0 -35 -75 0 -75 0 0 -40 c0 -39 -1 -40 -35 -40 -34 0
-35 1 -35 40 l0 40 -150 0 -150 0 0 -40 0 -40 -40 0 -40 0 0 -75 0 -75 -35 0
-35 0 0 -110 0 -110 -40 0 -40 0 0 -40 0 -40 -75 0 -75 0 0 40 0 40 -75 0 -75
0 0 -40 c0 -39 -1 -40 -35 -40 l-35 0 0 -300 0 -300 35 0 35 0 0 -225 0 -225
40 0 c39 0 40 -1 40 -35 0 -33 2 -35 35 -35 34 0 35 -1 35 -40 0 -39 -1 -40
-35 -40 -33 0 -35 -2 -35 -35 0 -34 -1 -35 -40 -35 l-40 0 0 -40 c0 -39 -1
-40 -35 -40 l-35 0 0 -225 0 -225 1200 0 1200 0 0 225 0 225 -40 0 -40 0 0 40
c0 39 -1 40 -35 40 -33 0 -35 2 -35 35 0 34 -1 35 -40 35 l-40 0 0 40 0 40 40
0 c39 0 40 1 40 35 0 33 2 35 35 35 l35 0 0 190 0 190 40 0 40 0 0 375 0 375
-40 0 -40 0 0 -40 c0 -39 -1 -40 -35 -40 -34 0 -35 1 -35 40 l0 40 -75 0 -75
0 0 35 c0 34 -1 35 -40 35 l-40 0 0 75 0 75 -35 0 -35 0 0 75 0 75 -40 0 -40
0 0 40 0 40 -75 0 -75 0 0 35 0 35 -300 0 -300 0 0 -35z"/>
</g>
</svg>
